<svg width="20" height="20" viewBox="0 0 20 20" fill="none" xmlns="http://www.w3.org/2000/svg">
<path d="M13.5 12.8173C12.7628 12.8173 12.1362 12.5592 11.6202 12.0433C11.1042 11.5273 10.8462 10.9007 10.8462 10.1635C10.8462 9.42633 11.1042 8.79975 11.6202 8.28375C12.1362 7.76775 12.7628 7.50975 13.5 7.50975C14.2372 7.50975 14.8638 7.76775 15.3798 8.28375C15.8958 8.79975 16.1538 9.42633 16.1538 10.1635C16.1538 10.9007 15.8958 11.5273 15.3798 12.0433C14.8638 12.5592 14.2372 12.8173 13.5 12.8173ZM13.5 11.3173C13.8218 11.3173 14.0946 11.2054 14.3182 10.9817C14.5419 10.7581 14.6538 10.4853 14.6538 10.1635C14.6538 9.84167 14.5419 9.56892 14.3182 9.34525C14.0946 9.12142 13.8218 9.0095 13.5 9.0095C13.1782 9.0095 12.9054 9.12142 12.6818 9.34525C12.4581 9.56892 12.3462 9.84167 12.3462 10.1635C12.3462 10.4853 12.4581 10.7581 12.6818 10.9817C12.9054 11.2054 13.1782 11.3173 13.5 11.3173ZM8.75 19.2693C8.494 19.2693 8.27933 19.1826 8.106 19.0093C7.93283 18.8361 7.84625 18.6214 7.84625 18.3652V16.7153C7.84625 16.4257 7.91525 16.1535 8.05325 15.8985C8.19125 15.6435 8.38442 15.4402 8.63275 15.2885C9.12758 14.991 9.55033 14.783 9.901 14.6645C10.2517 14.5458 10.7135 14.4389 11.2865 14.3438C11.4725 14.3121 11.6558 14.3159 11.8365 14.3552C12.0173 14.3946 12.168 14.4852 12.2885 14.627L13.5 16.125L14.6865 14.627C14.807 14.4732 14.9577 14.3796 15.1385 14.3462C15.3192 14.3129 15.5033 14.3121 15.6908 14.3438C16.2687 14.4389 16.7308 14.5455 17.077 14.6635C17.4233 14.7813 17.8483 14.9897 18.352 15.2885C18.6007 15.4397 18.7948 15.6423 18.9345 15.8962C19.0743 16.1501 19.1474 16.4199 19.1538 16.7057V18.3652C19.1538 18.6214 19.0672 18.8361 18.894 19.0093C18.7207 19.1826 18.506 19.2693 18.25 19.2693H8.75ZM9.32125 17.7693H12.8865L11.3348 15.7923C10.9814 15.8818 10.6379 15.998 10.3042 16.141C9.97058 16.2842 9.64292 16.4436 9.32125 16.6193V17.7693ZM14.1135 17.7693H17.6538V16.6193C17.3423 16.4333 17.0197 16.273 16.686 16.1385C16.3525 16.0038 16.0091 15.8917 15.6557 15.802L14.1135 17.7693ZM1.5 16V2V5.5405V5.125V16ZM1.81225 17.5C1.31058 17.5 0.883083 17.323 0.52975 16.969C0.176583 16.615 0 16.1894 0 15.6923V2.30775C0 1.81058 0.177 1.385 0.531 1.031C0.885 0.677 1.31058 0.5 1.80775 0.5H15.1923C15.6894 0.5 16.115 0.677 16.469 1.031C16.823 1.385 17 1.81058 17 2.30775V6.65375C16.791 6.41658 16.5683 6.1945 16.3318 5.9875C16.0953 5.7805 15.818 5.63658 15.5 5.55575V2.30775C15.5 2.21792 15.4712 2.14417 15.4135 2.0865C15.3558 2.02883 15.2821 2 15.1923 2H1.80775C1.71792 2 1.64417 2.02883 1.5865 2.0865C1.52883 2.14417 1.5 2.21792 1.5 2.30775V15.6923C1.5 15.7821 1.52883 15.8558 1.5865 15.9135C1.64417 15.9712 1.71792 16 1.80775 16H5.55375C5.52308 16.1192 5.5 16.2384 5.4845 16.3577C5.46917 16.4769 5.4615 16.5961 5.4615 16.7153V17.5H1.81225ZM4.5 5.86525H10.9615C11.2987 5.62808 11.6631 5.45183 12.0548 5.3365C12.4464 5.22117 12.8448 5.15708 13.25 5.14425V5.1155C13.25 4.903 13.1781 4.72483 13.0343 4.581C12.8906 4.43733 12.7125 4.3655 12.5 4.3655H4.5C4.2875 4.3655 4.10942 4.43742 3.96575 4.58125C3.82192 4.72492 3.75 4.90308 3.75 5.11575C3.75 5.32825 3.82192 5.50633 3.96575 5.65C4.10942 5.7935 4.2875 5.86525 4.5 5.86525ZM4.5 9.75H8.5095C8.52233 9.48333 8.55825 9.22658 8.61725 8.97975C8.67625 8.73308 8.75317 8.48983 8.848 8.25H4.5C4.2875 8.25 4.10942 8.32192 3.96575 8.46575C3.82192 8.60958 3.75 8.78775 3.75 9.00025C3.75 9.21292 3.82192 9.391 3.96575 9.5345C4.10942 9.67817 4.2875 9.75 4.5 9.75ZM4.5 13.6345H6.87225C7.04975 13.491 7.23625 13.3593 7.43175 13.2395C7.62725 13.1195 7.82692 13.0127 8.03075 12.9192V12.75C8.03075 12.5858 7.98717 12.4423 7.9 12.3193C7.81283 12.1962 7.65133 12.1348 7.4155 12.1348H4.5C4.2875 12.1348 4.10942 12.2066 3.96575 12.3503C3.82192 12.4941 3.75 12.6723 3.75 12.885C3.75 13.0975 3.82192 13.2756 3.96575 13.4193C4.10942 13.5628 4.2875 13.6345 4.5 13.6345Z" fill="#3D464D"/>
</svg>
